<svg width="228" height="28" viewBox="0 0 228 28" fill="none" xmlns="http://www.w3.org/2000/svg">
<path d="M10.9687 27.9106C7.63098 27.9106 5.03231 27.2788 3.17271 26.0153C1.3131 24.7517 0.383301 22.4391 0.383301 19.0775V1.19671H6.57006V19.0417C6.57006 21.259 8.03628 22.3676 10.9687 22.3676C13.8773 22.3676 15.3316 21.259 15.3316 19.0417V1.19671H21.5184V19.0775C21.5184 22.4391 20.5886 24.7517 18.729 26.0153C16.8932 27.2788 14.3065 27.9106 10.9687 27.9106Z" fill="#F3BF1F"/>
<path d="M34.8737 27.7318C32.6088 27.7318 30.9399 27.2073 29.8671 26.1583C28.7942 25.1093 28.2578 23.4285 28.2578 21.1159V1.19671H34.4445V20.0788C34.4445 21.4855 35.1359 22.1888 36.5187 22.1888H44.5651V27.7318H34.8737Z" fill="#F3BF1F"/>
<path d="M56.6215 1.19671H64.346L72.4281 27.7318H66.0268L64.6678 22.904H56.2281L54.9049 27.7318H48.5394L56.6215 1.19671ZM63.2374 17.3609L60.448 6.48943L57.6586 17.3609H63.2374Z" fill="#F3BF1F"/>
<path d="M100.553 27.7318L98.6576 12.0325L94.6523 27.7318H88.8589L84.8536 12.247L83.0655 27.7318H77.0933L80.2046 1.19671H86.0695L91.8271 20.6153L97.5489 1.19671H103.342L106.489 27.7318H100.553Z" fill="#F3BF1F"/>
<path d="M112.869 1.19671H124.313C126.601 1.19671 128.485 1.8285 129.963 3.09208C131.441 4.33181 132.18 6.81128 132.18 10.5305C132.18 14.2735 131.453 16.8007 129.999 18.1119C128.544 19.4232 126.744 20.0788 124.599 20.0788C123.574 20.0788 122.429 19.9835 121.166 19.7927C119.902 19.5782 119.199 19.459 119.056 19.4351V27.7318H112.869V1.19671ZM123.633 14.5358C124.444 14.5358 125.04 14.2259 125.421 13.606C125.803 12.9623 125.993 11.949 125.993 10.5662C125.993 8.01525 125.219 6.73976 123.669 6.73976H119.056V14.5358H123.633Z" fill="#F3BF1F"/>
<path d="M138.186 1.19671H144.372V27.7318H138.186V1.19671Z" fill="#F3BF1F"/>
<path d="M151.561 1.19671H156.46L166.617 17.2537V1.19671H172.803V27.7318H167.868L157.712 11.7106V27.7318H151.561V1.19671Z" fill="#F3BF1F"/>
<path d="M190.252 27.9464C187.606 27.9464 185.484 27.5888 183.886 26.8735C182.313 26.1583 181.121 24.8351 180.31 22.904C179.5 20.949 179.094 18.1358 179.094 14.4643C179.094 10.7927 179.5 7.97949 180.31 6.02453C181.121 4.06956 182.313 2.73446 183.886 2.01923C185.484 1.304 187.606 0.946381 190.252 0.946381C192.898 0.946381 195.008 1.304 196.582 2.01923C198.179 2.73446 199.383 4.06956 200.194 6.02453C201.004 7.97949 201.41 10.7927 201.41 14.4643C201.41 18.1358 201.004 20.949 200.194 22.904C199.383 24.8351 198.179 26.1583 196.582 26.8735C195.008 27.5888 192.898 27.9464 190.252 27.9464ZM190.252 22.4033C191.611 22.4033 192.636 22.2007 193.327 21.7954C194.019 21.3662 194.508 20.5914 194.794 19.4709C195.08 18.3504 195.223 16.6815 195.223 14.4643C195.223 12.1755 195.08 10.4709 194.794 9.35035C194.508 8.22982 194.019 7.47883 193.327 7.09737C192.66 6.69208 191.635 6.48943 190.252 6.48943C188.893 6.48943 187.868 6.69208 187.176 7.09737C186.509 7.47883 186.02 8.22982 185.71 9.35035C185.424 10.4709 185.281 12.1755 185.281 14.4643C185.281 16.6815 185.424 18.3504 185.71 19.4709C185.996 20.5914 186.485 21.3662 187.176 21.7954C187.868 22.2007 188.893 22.4033 190.252 22.4033Z" fill="#F3BF1F"/>
<path d="M213.37 19.9715L205.574 1.19671H211.975L216.589 13.6775L221.202 1.19671H227.353L219.557 19.9715V27.7318H213.37V19.9715Z" fill="#F3BF1F"/>
</svg>
